<?xml version="1.0" encoding="UTF-8" standalone="no"?><!DOCTYPE svg PUBLIC "-//W3C//DTD SVG 1.1//EN" "http://www.w3.org/Graphics/SVG/1.1/DTD/svg11.dtd"><svg width="100%" height="100%" viewBox="0 0 3300 2550" version="1.1" xmlns="http://www.w3.org/2000/svg" xmlns:xlink="http://www.w3.org/1999/xlink" xml:space="preserve" xmlns:serif="http://www.serif.com/" style="fill-rule:evenodd;clip-rule:evenodd;stroke-linejoin:round;stroke-miterlimit:2;"><rect x="0" y="0" width="3300" height="1900" style="fill:url(#_Linear1);"/><path d="M764.583,1582.92c-32.083,-5.834 -52.916,-31.25 -46.666,-56.667c6.25,-25.833 38.75,-43.75 72.083,-38.75c-2.083,-16.667 12.5,-32.083 32.917,-35.417c20.416,-3.333 40.833,5.834 47.5,21.667c-1.25,-4.583 -6.25,-27.917 12.083,-50.833c18.333,-22.084 46.25,-27.917 52.083,-29.167c3.75,-15.833 19.584,-27.917 38.75,-29.167c21.667,-1.666 42.5,10.834 47.084,29.167c31.666,-9.167 66.25,-1.25 86.25,18.333c16.666,16.667 20.416,40 9.583,60.417c12.917,-17.083 37.5,-25.833 61.667,-22.083c25,3.75 44.583,19.583 48.333,40c1.25,-0.417 27.083,-11.667 52.083,-0c17.917,8.333 27.917,24.583 25,41.25c9.584,-10.417 25.417,-13.75 36.667,-9.167c11.25,4.583 16.25,18.75 12.5,28.75c-13.75,38.75 -161.25,43.333 -161.25,43.333c0,0 -93.75,3.75 -191.25,2.917c-92.5,-0.417 -138.75,-4.167 -158.333,-6.25c-31.667,-2.083 -58.334,-5.833 -77.084,-8.333Z" style="fill:url(#_Linear2);fill-rule:nonzero;"/><path d="M50,1467.5c-32.083,-5.833 -52.917,-31.25 -46.667,-56.667c6.25,-25.833 38.75,-43.75 72.084,-38.75c-2.084,-16.666 12.5,-32.083 32.916,-35.416c20.417,-3.334 40.834,5.833 47.5,21.666c-1.25,-4.583 -6.25,-27.916 12.084,-50.833c18.333,-22.083 46.25,-27.917 52.083,-29.167c3.75,-15.833 19.583,-27.916 38.75,-29.166c21.667,-1.667 42.5,10.833 47.083,29.166c31.667,-9.166 66.25,-1.25 86.25,18.334c16.667,16.666 20.417,40 9.584,60.416c12.916,-17.083 37.5,-25.833 61.666,-22.083c25,3.75 44.584,19.583 48.334,40c1.25,-0.417 27.083,-11.667 52.083,-0c17.917,8.333 27.917,24.583 25,41.25c9.583,-10.417 25.417,-13.75 36.667,-9.167c11.25,4.584 16.25,18.75 12.5,28.75c-13.75,38.75 -161.25,43.334 -161.25,43.334c-0,-0 -93.75,3.75 -191.25,2.916c-92.5,-0.416 -138.75,-4.166 -158.334,-6.25c-31.666,-2.083 -58.333,-5.416 -77.083,-8.333Z" style="fill:url(#_Linear3);fill-rule:nonzero;"/><path d="M2222.92,1422.08c-32.084,-5.833 -52.917,-31.25 -46.667,-56.666c6.25,-25.834 38.75,-43.75 72.083,-38.75c-2.083,-16.667 12.5,-32.084 32.917,-35.417c20.417,-3.333 40.833,5.833 47.5,21.667c-1.25,-4.584 -6.25,-27.917 12.083,-50.834c18.334,-22.083 46.25,-27.916 52.084,-29.166c3.75,-15.834 19.583,-27.917 38.75,-29.167c21.666,-1.667 42.5,10.833 47.083,29.167c31.667,-9.167 66.25,-1.25 86.25,18.333c16.667,16.667 20.417,40 9.583,60.417c12.917,-17.084 37.5,-25.834 61.667,-22.084c25,3.75 44.583,19.584 48.333,40c1.25,-0.416 27.084,-11.666 52.084,0c17.916,8.334 27.916,24.584 25,41.25c9.583,-10.416 25.416,-13.75 36.666,-9.166c11.25,4.583 16.25,18.75 12.5,28.75c-13.75,38.75 -161.25,43.333 -161.25,43.333c0,-0 -93.75,3.75 -191.25,2.917c-92.5,-0.417 -138.75,-4.167 -158.333,-6.25c-31.667,-2.084 -57.917,-5.834 -77.083,-8.334Z" style="fill:url(#_Linear4);fill-rule:nonzero;"/><path d="M1820.83,1517.92c-47.5,-7.917 -77.916,-42.5 -69.166,-76.667c9.166,-35.417 57.083,-59.167 106.25,-52.5c-2.917,-22.5 18.333,-43.333 48.333,-47.917c30,-4.583 60,7.917 70.417,29.167c-1.667,-6.25 -9.167,-37.917 18.333,-68.75c26.667,-30 68.333,-37.917 77.083,-39.583c5.417,-21.667 29.167,-37.5 57.084,-39.584c32.083,-2.083 62.916,14.584 69.583,39.584c46.667,-12.084 97.917,-2.084 127.083,25c24.584,22.916 30,54.583 14.167,82.5c19.167,-22.917 55.417,-35 91.25,-30c37.083,5 65.833,26.666 71.25,54.166c1.667,-0.833 40,-15.833 77.083,0c26.25,11.25 40.834,33.334 37.084,56.25c14.166,-14.166 37.916,-18.75 54.166,-12.5c17.084,6.25 24.167,25.417 18.75,39.167c-20.416,52.5 -237.916,58.75 -238.333,58.75c-0,0 -137.917,5 -282.083,4.167c-136.25,-0.834 -204.584,-5.834 -233.75,-8.334c-47.5,-4.166 -86.667,-9.166 -114.584,-12.916Z" style="fill:url(#_Linear5);fill-rule:nonzero;"/><path d="M3300,1581.67c-15,-17.917 -30,-35.417 -44.583,-53.334c0.416,4.167 4.166,50.834 -21.25,83.75c-22.917,29.584 -51.667,24.584 -55.834,23.75c-8.75,0.834 -61.25,5.417 -98.75,-47.916c-14.583,-20.834 -22.083,-43.75 -25.833,-59.584l-68.75,53.75c-60,-78.333 -139.583,-167.916 -240,-250.833c-69.167,-56.667 -134.583,-99.167 -192.917,-131.25c-20.833,52.917 -77.083,176.667 -188.333,262.5c-105.833,81.667 -205,85.417 -248.333,83.75c-12.917,-4.583 -37.917,-16.25 -60,-47.917c-10.417,-14.583 -17.084,-29.583 -21.25,-41.666c-35,53.75 -92.084,129.166 -175.834,190.833c-100,74.167 -316.25,112.917 -342.916,83.75c-35.834,-40 -34.584,-100.833 -34.167,-107.5c-34.167,41.667 -68.75,83.75 -102.917,125.417c-48.75,-54.584 -114.166,-117.5 -197.083,-172.917c-75,-50.417 -144.583,-81.667 -201.25,-101.25c-49.167,52.083 -200.417,202.917 -381.25,232.917c-82.083,13.75 -175.417,43.75 -218.333,-30c-33.75,-57.084 -20.834,-145.417 -12.917,-185c-66.25,48.333 -137.5,108.75 -210,185c-22.5,23.75 -44.167,47.916 -64.167,71.666c-24.583,-7.5 -91.666,-52.916 -91.666,-52.916l-1.667,337.916c-0,0 2190,-11.666 3300,-17.5" style="fill:url(#_Linear6);fill-rule:nonzero;"/><path d="M0,1634.58c16.667,-14.166 33.333,-28.75 50.417,-42.916c-0.417,2.916 -4.167,35.416 20.833,58.333c22.5,20.417 50.417,17.083 54.167,16.667c8.75,0.833 59.583,3.75 95.833,-33.334c14.167,-14.583 21.25,-30.416 25,-41.666c22.083,12.5 44.583,25 66.667,37.5c58.333,-55 135.833,-117.5 233.333,-175c67.083,-39.584 130.833,-69.167 187.5,-91.667c20.417,37.083 75,123.333 183.333,183.333c102.917,57.084 199.167,59.584 241.667,58.334c12.5,-3.334 37.083,-11.25 58.333,-33.334c10,-10.416 16.667,-20.833 20.834,-29.166c33.75,37.5 89.583,90 170.833,133.333c97.083,51.667 307.5,79.167 333.333,58.333c34.584,-27.916 33.334,-70.416 33.334,-75l100,87.5c47.5,-37.916 111.25,-82.083 191.666,-120.833c72.917,-35.417 140.417,-57.083 195.834,-70.833c47.916,36.25 195,141.666 370.833,162.5c80,9.583 170.417,30.833 212.5,-20.834c32.5,-40 20,-101.25 12.5,-129.166c64.583,33.75 133.75,75.833 204.167,129.166c22.083,16.667 42.916,33.334 62.5,50c24.166,-5.416 56.25,-15.416 89.166,-37.083c35,-22.917 85.417,-42.5 85.834,-43.333l-0,280.416l-3300.42,-12.5" style="fill:url(#_Linear7);fill-rule:nonzero;"/><path d="M2.083,1741.25c80,-35.833 180.417,-70.833 297.917,-90c335.417,-55 564.583,58.333 937.5,148.75c176.25,42.5 417.5,65.833 900,112.5c512.5,49.583 1162.5,85.833 1162.5,85.833l0,160c0,0 -3247.08,142.5 -3300,155.834l2.083,-572.917Z" style="fill:url(#_Linear8);fill-rule:nonzero;"/><path d="M2.083,1887.08c291.25,87.084 796.667,223.334 1391.67,100.417c62.917,-12.917 41.25,-10.833 154.167,-37.5c547.916,-130 1752.08,-84.583 1752.08,-84.583c0,-0 0,402.083 0,399.166c0,-2.916 -2238.75,432.917 -3292.92,-185.833c-6.666,-138.333 -0.833,-13.333 -4.166,-166.25c-0.417,-7.917 -0.417,-16.25 -0.834,-25.417Z" style="fill:url(#_Linear9);fill-rule:nonzero;"/><path d="M3300,2086.25c-485.833,58.333 -1033.75,97.917 -1634.17,98.333c-611.25,0.417 -1168.75,-39.166 -1661.67,-98.333l-0,464.167l3295.83,-0l0,-464.167Z" style="fill:url(#_Linear10);fill-rule:nonzero;"/><defs><linearGradient id="_Linear1" x1="0" y1="0" x2="1" y2="0" gradientUnits="userSpaceOnUse" gradientTransform="matrix(1.16341e-13,1899.99,-1899.99,1.16341e-13,1650,-0.113804)"><stop offset="0" style="stop-color:#0088bc;stop-opacity:1"/><stop offset="0.99" style="stop-color:#d5eef1;stop-opacity:1"/><stop offset="1" style="stop-color:#d5eef1;stop-opacity:1"/></linearGradient><linearGradient id="_Linear2" x1="0" y1="0" x2="1" y2="0" gradientUnits="userSpaceOnUse" gradientTransform="matrix(1.42952e-14,233.458,-233.458,1.42952e-14,1035.29,1364.75)"><stop offset="0" style="stop-color:#fff;stop-opacity:0.79"/><stop offset="0.99" style="stop-color:#dbeff9;stop-opacity:0.79"/><stop offset="1" style="stop-color:#dbeff9;stop-opacity:0.79"/></linearGradient><linearGradient id="_Linear3" x1="0" y1="0" x2="1" y2="0" gradientUnits="userSpaceOnUse" gradientTransform="matrix(1.42952e-14,233.458,-233.458,1.42952e-14,320.833,1249.58)"><stop offset="0" style="stop-color:#fff;stop-opacity:0.79"/><stop offset="0.99" style="stop-color:#dbeff9;stop-opacity:0.79"/><stop offset="1" style="stop-color:#dbeff9;stop-opacity:0.79"/></linearGradient><linearGradient id="_Linear4" x1="0" y1="0" x2="1" y2="0" gradientUnits="userSpaceOnUse" gradientTransform="matrix(1.42952e-14,233.458,-233.458,1.42952e-14,2493.88,1203.92)"><stop offset="0" style="stop-color:#fff;stop-opacity:0.79"/><stop offset="0.99" style="stop-color:#dbeff9;stop-opacity:0.79"/><stop offset="1" style="stop-color:#dbeff9;stop-opacity:0.79"/></linearGradient><linearGradient id="_Linear5" x1="0" y1="0" x2="1" y2="0" gradientUnits="userSpaceOnUse" gradientTransform="matrix(1.94055e-14,316.917,-316.917,1.94055e-14,2220.58,1222.08)"><stop offset="0" style="stop-color:#fff;stop-opacity:0.79"/><stop offset="0.99" style="stop-color:#dbeff9;stop-opacity:0.79"/><stop offset="1" style="stop-color:#dbeff9;stop-opacity:0.79"/></linearGradient><linearGradient id="_Linear6" x1="0" y1="0" x2="1" y2="0" gradientUnits="userSpaceOnUse" gradientTransform="matrix(5.11239e-14,834.917,-834.917,5.11239e-14,1650,1199.88)"><stop offset="0" style="stop-color:#add1ef;stop-opacity:1"/><stop offset="0.99" style="stop-color:#4db3e6;stop-opacity:1"/><stop offset="1" style="stop-color:#4db3e6;stop-opacity:1"/></linearGradient><linearGradient id="_Linear7" x1="0" y1="0" x2="1" y2="0" gradientUnits="userSpaceOnUse" gradientTransform="matrix(3.57163e-14,583.292,-583.292,3.57163e-14,1650,1362.38)"><stop offset="0" style="stop-color:#bacfeb;stop-opacity:1"/><stop offset="1" style="stop-color:#5783c3;stop-opacity:1"/></linearGradient><linearGradient id="_Linear8" x1="0" y1="0" x2="1" y2="0" gradientUnits="userSpaceOnUse" gradientTransform="matrix(4.14645e-14,677.167,-677.167,4.14645e-14,1650,1636.79)"><stop offset="0" style="stop-color:#88c03f;stop-opacity:1"/><stop offset="0.97" style="stop-color:#5c892a;stop-opacity:1"/><stop offset="1" style="stop-color:#5c892a;stop-opacity:1"/></linearGradient><linearGradient id="_Linear9" x1="0" y1="0" x2="1" y2="0" gradientUnits="userSpaceOnUse" gradientTransform="matrix(3.38615e-14,553,-553,3.38615e-14,1651.08,1857.75)"><stop offset="0" style="stop-color:#88c03f;stop-opacity:1"/><stop offset="1" style="stop-color:#48701f;stop-opacity:1"/><stop offset="1" style="stop-color:#48701f;stop-opacity:1"/></linearGradient><linearGradient id="_Linear10" x1="0" y1="0" x2="1" y2="0" gradientUnits="userSpaceOnUse" gradientTransform="matrix(2.84093e-14,463.958,-463.958,2.84093e-14,1652.08,2086.17)"><stop offset="0" style="stop-color:#8dc63f;stop-opacity:1"/><stop offset="0.97" style="stop-color:#61823e;stop-opacity:1"/><stop offset="1" style="stop-color:#61823e;stop-opacity:1"/></linearGradient></defs></svg>