<?xml version="1.0" encoding="UTF-8" standalone="no"?><!DOCTYPE svg PUBLIC "-//W3C//DTD SVG 1.1//EN" "http://www.w3.org/Graphics/SVG/1.1/DTD/svg11.dtd"><svg width="100%" height="100%" viewBox="0 0 3300 2550" version="1.1" xmlns="http://www.w3.org/2000/svg" xmlns:xlink="http://www.w3.org/1999/xlink" xml:space="preserve" xmlns:serif="http://www.serif.com/" style="fill-rule:evenodd;clip-rule:evenodd;stroke-linejoin:round;stroke-miterlimit:2;"><path d="M320.833,1054.17c-69.583,-16.25 -114.166,-84.584 -100.833,-153.334c13.333,-70.416 83.333,-118.333 155,-105c-4.167,-45.416 26.667,-86.666 70.833,-95.833c43.75,-9.167 87.917,15.833 102.5,58.333c-2.5,-12.5 -13.75,-75.833 26.667,-137.5c39.167,-60.416 99.583,-76.25 112.5,-79.166c7.917,-42.917 42.5,-75.417 83.333,-79.167c46.667,-4.583 92.084,29.167 101.667,79.167c67.917,-24.584 142.917,-3.75 185.833,50c36.25,45.833 43.75,108.75 20.834,164.583c27.916,-45.833 81.25,-70 133.333,-60.417c53.75,10 96.25,53.75 104.167,108.334c2.5,-1.25 58.333,-31.667 112.5,-0c38.333,22.5 60,67.083 54.166,112.5c20.417,-27.917 55,-37.084 79.167,-25c24.583,12.5 35,51.25 27.5,78.333c-30,105 -348.333,117.5 -348.333,117.5c-0,0 -201.667,9.583 -412.5,8.333c-199.167,-1.25 -298.75,-11.666 -341.667,-16.666c-68.75,-7.917 -126.25,-17.5 -166.667,-25Z" style="fill:url(#_Linear1);fill-rule:nonzero;"/><path d="M2577.5,490c30.833,-7.083 50.833,-36.667 45,-66.667c-5.833,-30.833 -37.083,-51.25 -69.167,-45.416c1.667,-19.584 -12.083,-37.5 -31.666,-41.667c-19.584,-3.75 -39.167,7.083 -45.834,25.417c1.25,-5.417 6.25,-32.917 -11.666,-59.584c-17.5,-26.25 -44.584,-32.916 -50,-34.583c-3.334,-18.75 -19.167,-32.5 -37.084,-34.583c-20.833,-2.084 -41.25,12.916 -45.416,34.583c-30.417,-10.833 -63.75,-1.667 -82.917,21.667c-16.25,20 -19.583,47.5 -9.167,71.666c-12.5,-20 -36.25,-30.416 -59.583,-26.25c-24.167,4.167 -42.917,23.334 -46.667,47.084c-1.25,-0.417 -25.833,-13.75 -50,-0c-17.083,9.583 -26.666,29.166 -24.166,48.75c-9.167,-12.084 -24.584,-16.25 -35.417,-10.834c-10.833,5.417 -15.833,22.084 -12.083,34.167c13.333,45.417 155.416,50.833 155.416,50.833c0,0 90,4.167 184.167,3.75c88.75,-0.416 133.333,-5 152.5,-7.083c30,-3.75 55.417,-7.917 73.75,-11.25Z" style="fill:url(#_Linear2);fill-rule:nonzero;"/><defs><linearGradient id="_Linear1" x1="0" y1="0" x2="1" y2="0" gradientUnits="userSpaceOnUse" gradientTransform="matrix(3.88111e-14,633.833,-633.833,3.88111e-14,905,462)"><stop offset="0" style="stop-color:#fff;stop-opacity:0.68"/><stop offset="0.99" style="stop-color:#dbeff9;stop-opacity:0.68"/><stop offset="1" style="stop-color:#dbeff9;stop-opacity:0.68"/></linearGradient><linearGradient id="_Linear2" x1="0" y1="0" x2="1" y2="0" gradientUnits="userSpaceOnUse" gradientTransform="matrix(1.68626e-14,275.387,-275.387,1.68626e-14,2316.69,232.821)"><stop offset="0" style="stop-color:#fff;stop-opacity:0.92"/><stop offset="0.99" style="stop-color:#dbeff9;stop-opacity:0.92"/><stop offset="1" style="stop-color:#dbeff9;stop-opacity:0.92"/></linearGradient></defs></svg>