<?xml version="1.0" encoding="UTF-8" standalone="no"?><!DOCTYPE svg PUBLIC "-//W3C//DTD SVG 1.1//EN" "http://www.w3.org/Graphics/SVG/1.1/DTD/svg11.dtd"><svg width="100%" height="100%" viewBox="0 0 3300 2550" version="1.1" xmlns="http://www.w3.org/2000/svg" xmlns:xlink="http://www.w3.org/1999/xlink" xml:space="preserve" xmlns:serif="http://www.serif.com/" style="fill-rule:evenodd;clip-rule:evenodd;stroke-linejoin:round;stroke-miterlimit:2;"><path d="M2384.17,420.417c-45.417,-7.917 -74.167,-42.5 -65.834,-76.667c8.75,-35.417 54.167,-59.167 101.25,-52.5c-2.5,-22.5 17.5,-43.333 46.25,-47.917c28.334,-4.583 57.5,7.917 67.084,29.167c-1.667,-6.25 -8.75,-37.917 17.083,-68.75c25.417,-30 65,-37.917 73.333,-39.583c5,-21.667 27.917,-37.5 54.167,-39.584c30.417,-2.083 60,14.584 66.25,39.584c44.167,-12.084 93.333,-2.084 121.25,25c23.75,22.916 28.75,54.583 13.75,82.083c17.917,-22.917 52.917,-35 87.083,-30c35,5 62.5,26.667 67.917,54.167c1.667,-0.834 37.917,-15.834 73.333,-0c25,11.25 39.167,33.333 35.417,56.25c13.333,-14.167 35.833,-18.75 51.667,-12.5c16.25,6.25 22.916,25.416 17.916,39.166c-19.583,52.5 -227.083,58.75 -227.083,58.75c0,0 -131.667,5 -269.167,4.167c-130,-0.833 -195,-5.833 -222.916,-8.333c-45,-3.75 -82.5,-8.75 -108.75,-12.5Z" style="fill:url(#_Linear1);fill-rule:nonzero;"/><path d="M764.583,1582.92c-32.083,-5.834 -52.916,-31.25 -46.666,-56.667c6.25,-25.833 38.75,-43.75 72.083,-38.75c-2.083,-16.667 12.5,-32.083 32.917,-35.417c20.416,-3.333 40.833,5.834 47.5,21.667c-1.25,-4.583 -6.25,-27.917 12.083,-50.833c18.333,-22.084 46.25,-27.917 52.083,-29.167c3.75,-15.833 19.584,-27.917 38.75,-29.167c21.667,-1.666 42.5,10.834 47.084,29.167c31.666,-9.167 66.25,-1.25 86.25,18.333c16.666,16.667 20.416,40 9.583,60.417c12.917,-17.083 37.5,-25.833 61.667,-22.083c25,3.75 44.583,19.583 48.333,40c1.25,-0.417 27.083,-11.667 52.083,-0c17.917,8.333 27.917,24.583 25,41.25c9.584,-10.417 25.417,-13.75 36.667,-9.167c11.25,4.583 16.25,18.75 12.5,28.75c-13.75,38.75 -161.25,43.333 -161.25,43.333c0,0 -93.75,3.75 -191.25,2.917c-92.5,-0.417 -138.75,-4.167 -158.333,-6.25c-31.667,-2.083 -58.334,-5.833 -77.084,-8.333Z" style="fill:url(#_Linear2);fill-rule:nonzero;"/><defs><linearGradient id="_Linear1" x1="0" y1="0" x2="1" y2="0" gradientUnits="userSpaceOnUse" gradientTransform="matrix(1.94063e-14,316.929,-316.929,1.94063e-14,2764.92,124.487)"><stop offset="0" style="stop-color:#fff;stop-opacity:0.82"/><stop offset="0.99" style="stop-color:#dbeff9;stop-opacity:0.82"/><stop offset="1" style="stop-color:#dbeff9;stop-opacity:0.82"/></linearGradient><linearGradient id="_Linear2" x1="0" y1="0" x2="1" y2="0" gradientUnits="userSpaceOnUse" gradientTransform="matrix(1.42952e-14,233.458,-233.458,1.42952e-14,1035.29,1364.75)"><stop offset="0" style="stop-color:#fff;stop-opacity:0.79"/><stop offset="0.99" style="stop-color:#dbeff9;stop-opacity:0.79"/><stop offset="1" style="stop-color:#dbeff9;stop-opacity:0.79"/></linearGradient></defs></svg>