<?xml version="1.0" encoding="UTF-8" standalone="no"?><!DOCTYPE svg PUBLIC "-//W3C//DTD SVG 1.1//EN" "http://www.w3.org/Graphics/SVG/1.1/DTD/svg11.dtd"><svg width="100%" height="100%" viewBox="0 0 3300 2550" version="1.1" xmlns="http://www.w3.org/2000/svg" xmlns:xlink="http://www.w3.org/1999/xlink" xml:space="preserve" xmlns:serif="http://www.serif.com/" style="fill-rule:evenodd;clip-rule:evenodd;stroke-linejoin:round;stroke-miterlimit:2;"><path d="M50,1467.5c-32.083,-5.833 -52.917,-31.25 -46.667,-56.667c6.25,-25.833 38.75,-43.75 72.084,-38.75c-2.084,-16.666 12.5,-32.083 32.916,-35.416c20.417,-3.334 40.834,5.833 47.5,21.666c-1.25,-4.583 -6.25,-27.916 12.084,-50.833c18.333,-22.083 46.25,-27.917 52.083,-29.167c3.75,-15.833 19.583,-27.916 38.75,-29.166c21.667,-1.667 42.5,10.833 47.083,29.166c31.667,-9.166 66.25,-1.25 86.25,18.334c16.667,16.666 20.417,40 9.584,60.416c12.916,-17.083 37.5,-25.833 61.666,-22.083c25,3.75 44.584,19.583 48.334,40c1.25,-0.417 27.083,-11.667 52.083,-0c17.917,8.333 27.917,24.583 25,41.25c9.583,-10.417 25.417,-13.75 36.667,-9.167c11.25,4.584 16.25,18.75 12.5,28.75c-13.75,38.75 -161.25,43.334 -161.25,43.334c-0,-0 -93.75,3.75 -191.25,2.916c-92.5,-0.416 -138.75,-4.166 -158.334,-6.25c-31.666,-2.083 -58.333,-5.416 -77.083,-8.333Z" style="fill:url(#_Linear1);fill-rule:nonzero;"/><path d="M2222.92,1422.08c-32.084,-5.833 -52.917,-31.25 -46.667,-56.666c6.25,-25.834 38.75,-43.75 72.083,-38.75c-2.083,-16.667 12.5,-32.084 32.917,-35.417c20.417,-3.333 40.833,5.833 47.5,21.667c-1.25,-4.584 -6.25,-27.917 12.083,-50.834c18.334,-22.083 46.25,-27.916 52.084,-29.166c3.75,-15.834 19.583,-27.917 38.75,-29.167c21.666,-1.667 42.5,10.833 47.083,29.167c31.667,-9.167 66.25,-1.25 86.25,18.333c16.667,16.667 20.417,40 9.583,60.417c12.917,-17.084 37.5,-25.834 61.667,-22.084c25,3.75 44.583,19.584 48.333,40c1.25,-0.416 27.084,-11.666 52.084,0c17.916,8.334 27.916,24.584 25,41.25c9.583,-10.416 25.416,-13.75 36.666,-9.166c11.25,4.583 16.25,18.75 12.5,28.75c-13.75,38.75 -161.25,43.333 -161.25,43.333c0,-0 -93.75,3.75 -191.25,2.917c-92.5,-0.417 -138.75,-4.167 -158.333,-6.25c-31.667,-2.084 -57.917,-5.834 -77.083,-8.334Z" style="fill:url(#_Linear2);fill-rule:nonzero;"/><defs><linearGradient id="_Linear1" x1="0" y1="0" x2="1" y2="0" gradientUnits="userSpaceOnUse" gradientTransform="matrix(1.42952e-14,233.458,-233.458,1.42952e-14,320.833,1249.58)"><stop offset="0" style="stop-color:#fff;stop-opacity:0.79"/><stop offset="0.99" style="stop-color:#dbeff9;stop-opacity:0.79"/><stop offset="1" style="stop-color:#dbeff9;stop-opacity:0.79"/></linearGradient><linearGradient id="_Linear2" x1="0" y1="0" x2="1" y2="0" gradientUnits="userSpaceOnUse" gradientTransform="matrix(1.42952e-14,233.458,-233.458,1.42952e-14,2493.88,1203.92)"><stop offset="0" style="stop-color:#fff;stop-opacity:0.79"/><stop offset="0.99" style="stop-color:#dbeff9;stop-opacity:0.79"/><stop offset="1" style="stop-color:#dbeff9;stop-opacity:0.79"/></linearGradient></defs></svg>